<svg xmlns="http://www.w3.org/2000/svg" width="24" height="24" viewBox="0 0 24 24" fill="white">
  <path d="M12 0C5.373 0 0 5.373 0 12s5.373 12 12 12 12-5.373 
  12-12S18.627 0 12 0zm5.357 17.383a.749.749 0 0 
  1-1.028.249c-2.812-1.725-6.349-2.112-10.546-1.151a.75.75 0 1 
  1-.34-1.463c4.622-1.075 8.61-.63 11.741 1.328a.75.75 0 0 
  1 .173 1.037zm1.507-2.985a.937.937 0 0 
  1-1.285.312c-3.219-1.97-8.117-2.541-11.905-1.386a.938.938 0 0 
  1-.537-1.797c4.314-1.288 9.75-.642 13.45 1.563.44.27.579.85.277 
  1.308zm.134-3.131c-3.885-2.292-10.327-2.5-14.067-1.365a1.125 
  1.125 0 0 1-.65-2.151c4.284-1.295 11.367-1.056 15.746 1.587a1.125 
  1.125 0 0 1-1.03 1.93z"/>
</svg>
